<svg xmlns="http://www.w3.org/2000/svg" xmlns:xlink="http://www.w3.org/1999/xlink" viewBox="0 0 48 48"><defs><linearGradient id="a" gradientTransform="matrix(.922 0 0 .919 57.6 1.33)" gradientUnits="userSpaceOnUse" x1="-18.59" x2="-28.79" y1="11.1" y2="14.1"><stop offset="0" stop-opacity=".41"/><stop offset="1" stop-opacity="0"/></linearGradient><linearGradient id="b" gradientUnits="userSpaceOnUse" x1="33.2" x2="35.3" y1="11.57" y2="9.69"><stop offset="0" stop-color="#fff"/><stop offset="1" stop-color="#fff" stop-opacity="0"/></linearGradient><linearGradient id="c" gradientTransform="matrix(1.101 0 0 1.143 -2.51 -6.21)" gradientUnits="userSpaceOnUse" x2="0" y1="47" y2="40"><stop offset="0" stop-opacity="0"/><stop offset=".5"/><stop offset="1" stop-opacity="0"/></linearGradient><linearGradient id="d" gradientUnits="userSpaceOnUse" x1="12.5" x2="-2.75" y1="49" y2="-22.5"><stop offset="0" stop-color="#888a85"/><stop offset="1" stop-color="#babdb6"/></linearGradient><radialGradient id="e" cx="4" cy="5.3" gradientTransform="matrix(1.886 0 0 1.177 -3.54 -4.24)" gradientUnits="userSpaceOnUse" r="17" xlink:href="#b"/><radialGradient id="f" cx="4.99" cy="43.5" gradientTransform="matrix(2.207 0 0 1.6 28.36 -26.1)" gradientUnits="userSpaceOnUse" r="2.5"><stop offset="0"/><stop offset="1" stop-opacity="0"/></radialGradient><radialGradient id="g" cx="-26.3" cy="10.1" gradientTransform="matrix(.407 -.28 .751 1.093 34.82 -8.44)" gradientUnits="userSpaceOnUse" r="7"><stop offset="0" stop-color="#fff"/><stop offset=".48" stop-color="#fff"/><stop offset="1" stop-color="#fff" stop-opacity="0"/></radialGradient><radialGradient id="h" cx="-30.2" cy="35.4" gradientTransform="matrix(3.996 0 0 1.935 150.6 -31.2)" gradientUnits="userSpaceOnUse" r="18"><stop offset="0" stop-color="#f6f6f5"/><stop offset="1" stop-color="#d3d7cf"/></radialGradient><path id="i" d="m11.5 10.5c0 1.33-2 1.33-2 0s2-1.33 2 0zm18 0c0 1.33-2 1.33-2 0s2-1.33 2 0zm-9 28c0 1.33-2 1.33-2 0s2-1.33 2 0zm16-6c0 1.33-2 1.33-2 0s2-1.33 2 0zm-16 5.62 14-5.28m-23-22.35h16" fill="#fff"/><path id="j" d="m18.5 9.5h2v2h-2zm8 25h2v2h-2z"/></defs><g id="k" opacity=".3"><path id="l" d="m39.34 39.5h5.51v8h-5.51z" fill="url(#f)"/><path d="m8.5 39.5h30.84v8h-30.84z" fill="url(#c)"/><use transform="matrix(-1 0 0 1 47.84 0)" xlink:href="#l"/></g><use transform="matrix(.908 0 0 .625 2.21 16.31)" xlink:href="#k"/><path d="m27.5 3.5c3.88.07 6.5 2.5 9 5s4.61 5.25 5 9v24.98c0 1.12-.9 2.02-2.02 2.02h-30.95c-1.12 0-2.02-.9-2.02-2.02v-36.95c0-1.12.9-2.02 2-2.02z" fill="url(#h)" stroke="url(#d)"/><path d="m27.5 4c-1.39 0-.04.5 1.34 1.13 1.39.63 4.97 3.22 4.16 6.88 4.32-.43 6.68 3.12 7 4.28s1 2.61 1 1.22c.03-3.81-2.85-6.43-4.84-8.66-2-2.22-5-4.37-8.66-4.84z" fill="url(#g)"/><path d="m28.6 5c .92 0 3 6.2 2.09 10.33 4.3-.43 8.85.09 9.31.94-.32-1.16-2.68-4.71-7-4.28.86-3.88-3.19-6.62-4.4-6.99z" fill="url(#a)" opacity=".88"/><path d="m7 5.53v36.94c0 .86.67 1.53 1.53 1.53h30.94c.86 0 1.53-.67 1.53-1.53v-24.97c0-1.39-.49-4.3-2.34-6.16l-5-5c-1.86-1.86-4.76-2.34-6.16-2.34h-18.97c-.86 0-1.53.67-1.53 1.53z" fill="url(#e)" opacity=".68"/><g opacity=".9"><path d="m28.5 36.5c12.38-4.38-26.3-25-8-25 18.1 0-4.26 29.34 8 25z" opacity=".06" stroke="#000"/><path d="m27.5 35.5c12.38-4.38-26.3-25-8-25 18.1 0-4.26 29.34 8 25z" fill="#fcaf3e" stroke="#ce5c00"/><g stroke="#fff"><use stroke-width="2" xlink:href="#i"/><use stroke-width="2" xlink:href="#j"/><path d="m16.63 14.92c2.37 3.08 5.9 6.08 8.31 8.66 1.06-4.58 1.49-8.1-.09-10.16-1.68-2.59-8.51-2.23-9.29-1.07-.3496.6521.7375 2.136 1.07 2.57zm12.32 18.17c.34-1.59-1.863-4.26-3.033-5.58-.7262 2.598-1.811 6.581-1.032 7.28.4371.4703 3.79-.1813 4.065-1.7z" fill="none" opacity=".53"/></g><use stroke="#729fcf" xlink:href="#i"/><use fill="#729fcf" stroke="#3465a4" xlink:href="#j"/></g><path d="m7.5 42.47c0 .58.45 1.03 1.03 1.03h30.94c.58 0 1.03-.45 1.03-1.03v-24.97c0-1.28-.48-4.11-2.19-5.81l-5-5c-1.71-1.71-4.53-2.19-5.81-2.19h-18.97c-.58 0-1.03.45-1.03 1.03z" fill="none" stroke="url(#b)"/></svg>