<svg xmlns="http://www.w3.org/2000/svg" id="svg4417" width="48" height="48" xmlns:xlink="http://www.w3.org/1999/xlink"><defs id="defs4419"><linearGradient id="linearGradient2998"><stop id="stop3001" stop-color="#fff" stop-opacity="0"/><stop id="stop3007" offset=".5" stop-color="#fff"/><stop id="stop3003" offset="1" stop-color="#fff" stop-opacity="0"/></linearGradient><linearGradient id="linearGradient2996"><stop id="stop2998" stop-color="#fff"/><stop id="stop3000" offset="1" stop-color="#fff" stop-opacity="0"/></linearGradient><linearGradient id="linearGradient2992"><stop id="stop2994"/><stop id="stop2996" offset="1" stop-opacity="0"/></linearGradient><linearGradient id="linearGradient6593"><stop id="stop6595" stop-color="#2e3436"/><stop id="stop6601" offset=".5" stop-color="#424a4d"/><stop id="stop6597" offset="1" stop-color="#2e3436"/></linearGradient><linearGradient id="linearGradient3010"><stop id="stop3012" stop-color="#fff"/><stop id="stop3014" offset="1" stop-color="#fff" stop-opacity=".4269"/></linearGradient><linearGradient id="linearGradient3002"><stop id="stop3004" stop-color="#babdb6"/><stop id="stop3006" offset="1" stop-color="#2e3436"/></linearGradient><linearGradient id="linearGradient5737"><stop id="stop5739" stop-color="#fff"/><stop id="stop5741" offset="1" stop-color="#fff" stop-opacity=".32164"/></linearGradient><linearGradient id="linearGradient5683"><stop id="stop5685" stop-color="#fff"/><stop id="stop5687" offset="1" stop-color="#888a85"/></linearGradient><linearGradient id="linearGradient4790"><stop id="stop4792" stop-color="#555753"/><stop id="stop4794" offset="1" stop-color="#babdb6"/></linearGradient><linearGradient id="linearGradient3897"><stop id="stop3899" stop-color="#fff"/><stop id="stop3901" offset="1" stop-color="#fff" stop-opacity="0"/></linearGradient><linearGradient id="linearGradient3209"><stop id="stop3211" stop-color="#fff"/><stop id="stop3213" offset="1" stop-color="#fff" stop-opacity="0"/></linearGradient><linearGradient id="linearGradient3202"><stop id="stop3204" stop-color="#babdb6"/><stop id="stop3206" offset="1" stop-color="#555753"/></linearGradient><linearGradient id="linearGradient3101"><stop id="stop3103" stop-color="#2e3436"/><stop id="stop3109" offset=".12825" stop-color="#555753"/><stop id="stop3111" offset=".56024" stop-color="#555753"/><stop id="stop3105" offset="1" stop-color="#2e3436"/></linearGradient><linearGradient id="linearGradient3089"><stop id="stop3092"/><stop id="stop3094" offset="1" stop-color="#2e3436"/></linearGradient><linearGradient id="linearGradient3032"><stop id="stop3034" stop-color="#fff"/><stop id="stop3036" offset="1" stop-color="#fff" stop-opacity="0"/></linearGradient><linearGradient id="linearGradient3169"><stop id="stop3171"/><stop id="stop3173" offset="1" stop-opacity="0"/></linearGradient><linearGradient id="linearGradient3116"><stop id="stop3118" stop-color="#fff"/><stop id="stop3120" offset="1" stop-color="#fff" stop-opacity="0"/></linearGradient><linearGradient id="linearGradient3093"><stop id="stop3095" stop-color="#555753"/><stop id="stop2022" offset=".72289" stop-color="#888a85"/><stop id="stop3097" offset="1" stop-color="#71736e"/></linearGradient><linearGradient id="linearGradient3041"><stop id="stop3043" stop-color="#555753"/><stop id="stop3049" offset=".3263" stop-color="#898b86"/><stop id="stop3051" offset=".62984" stop-color="#525450"/><stop id="stop3053" offset=".85848" stop-color="#535551"/><stop id="stop3045" offset="1" stop-color="#3e3f3d"/></linearGradient><linearGradient id="linearGradient2982"><stop id="stop2984" stop-opacity="0"/><stop id="stop2990" offset=".0548"/><stop id="stop2992" offset=".90964"/><stop id="stop2986" offset="1" stop-opacity="0"/></linearGradient><linearGradient id="linearGradient2927"><stop id="stop2929" stop-color="#ddd"/><stop id="stop2931" offset="1" stop-color="#ddd" stop-opacity="0"/></linearGradient><linearGradient id="linearGradient2919"><stop id="stop2921" stop-color="#646464"/><stop id="stop2923" offset="1" stop-color="#646464" stop-opacity="0"/></linearGradient><linearGradient id="linearGradient2911"><stop id="stop2913" stop-color="#464f52"/><stop id="stop2915" offset="1" stop-color="#464f52" stop-opacity="0"/></linearGradient><linearGradient id="aigrd6" x1="-1.2432" x2="26.5278" y1="-3.2012" y2="28.3922" gradientUnits="userSpaceOnUse"><stop id="stop6468" stop-color="#FFF"/><stop id="stop6470" offset="1" stop-color="#959595"/></linearGradient><radialGradient id="aigrd3" cx="23.1567" cy="29.0337" r="26.966" fx="23.1567" fy="29.0337" gradientUnits="userSpaceOnUse"><stop id="stop6443" stop-color="#767676"/><stop id="stop6445" offset="1" stop-color="#484848"/></radialGradient><radialGradient id="aigrd2" cx="13.5024" cy="12.3457" r="10.8808" fx="13.5024" fy="12.3457" gradientUnits="userSpaceOnUse"><stop id="stop6436" stop-color="#454545"/><stop id="stop6438" offset="1" stop-color="#333"/></radialGradient><linearGradient id="aigrd1" x1="99.7773" x2="153.0005" y1="15.4238" y2="248.6311" gradientUnits="userSpaceOnUse"><stop id="stop53300" stop-color="#707070"/><stop id="stop53302" offset="1" stop-color="#cdcdcd"/></linearGradient><radialGradient id="radialGradient4553" cx="23.1567" cy="29.0337" r="26.966" xlink:href="#aigrd3" gradientUnits="userSpaceOnUse" gradientTransform="matrix(1.101263,0,0,1.101263,-57.56432,3.17435)" fx="23.1567" fy="29.0337"/><radialGradient id="radialGradient4556" cx="13.5024" cy="12.3457" r="10.8808" xlink:href="#aigrd2" gradientUnits="userSpaceOnUse" gradientTransform="matrix(1.101263,0,0,1.101263,-57.56432,3.17435)" fx="13.5024" fy="12.3457"/><linearGradient id="linearGradient6380" x1=".88337" x2="30.99429" y1="-37.64392" y2="-.67234" xlink:href="#aigrd6" gradientUnits="userSpaceOnUse" gradientTransform="translate(-57.87868,40.00204)"/><linearGradient id="linearGradient2001" x1="4.63337" x2="34.05679" y1="-33.51892" y2="2.14016" xlink:href="#aigrd1" gradientUnits="userSpaceOnUse" gradientTransform="translate(3.505583,42.36313)"/><linearGradient id="linearGradient2917" x1="29.75" x2="29.75" y1="38.42013" y2="43.9375" xlink:href="#linearGradient2911" gradientUnits="userSpaceOnUse" gradientTransform="translate(-60,0)"/><linearGradient id="linearGradient2925" x1="34.25" x2="34.25" y1="38.80416" y2="44.38097" xlink:href="#linearGradient2919" gradientUnits="userSpaceOnUse" gradientTransform="translate(-60,0)"/><linearGradient id="linearGradient2933" x1="35.625" x2="35.625" y1="38.87457" y2="43.44496" xlink:href="#linearGradient2927" gradientUnits="userSpaceOnUse" gradientTransform="translate(-60,0)"/><linearGradient id="linearGradient2988" x1="61.93308" x2="106.09679" y1="31.25" y2="31.25" xlink:href="#linearGradient2982" gradientUnits="userSpaceOnUse" gradientTransform="translate(-60,0)"/><linearGradient id="linearGradient3000" x1="62.3125" x2="106.06924" y1="40" y2="40" xlink:href="#linearGradient2982" gradientUnits="userSpaceOnUse" gradientTransform="translate(-60,0)"/><linearGradient id="linearGradient3047" x1="63.5" x2="104.79548" y1="29.4375" y2="29.4375" xlink:href="#linearGradient3041" gradientUnits="userSpaceOnUse" gradientTransform="translate(-60,0)"/><linearGradient id="linearGradient3099" x1="91.33924" x2="105.30366" y1="19.33395" y2="19.33395" xlink:href="#linearGradient3093" gradientUnits="userSpaceOnUse" gradientTransform="translate(-60,0)"/><linearGradient id="linearGradient3122" x1="75.875" x2="77.375" y1="28.625" y2="39.40625" xlink:href="#linearGradient3116" gradientUnits="userSpaceOnUse"/><linearGradient id="linearGradient3072" x1="73.33796" x2="76.95592" y1="25.38438" y2="12.30605" xlink:href="#linearGradient3202" gradientUnits="userSpaceOnUse" gradientTransform="translate(-60,-1)"/><linearGradient id="linearGradient3087" x1="77.00002" x2="80.39064" y1="13.525" y2="-5.01963" xlink:href="#linearGradient3032" gradientUnits="userSpaceOnUse"/><linearGradient id="linearGradient3096" x1="87.5" x2="90.24909" y1="13.75" y2="14.44693" xlink:href="#linearGradient3089" gradientUnits="userSpaceOnUse" gradientTransform="translate(-60,0)"/><linearGradient id="linearGradient3107" x1="76.9371" x2="93.06368" y1="15.875" y2="15.875" xlink:href="#linearGradient3101" gradientUnits="userSpaceOnUse" gradientTransform="translate(-60,0)"/><linearGradient id="linearGradient3060" x1="18.73833" x2="44.68031" y1="16.69538" y2="23.49996" xlink:href="#linearGradient2982" gradientUnits="userSpaceOnUse"/><linearGradient id="linearGradient3062" x1="18.73833" x2="44.68031" y1="15.69538" y2="22.49996" xlink:href="#linearGradient2982" gradientUnits="userSpaceOnUse"/><radialGradient id="radialGradient3143" cx="85.50001" cy="16.99959" r="22.24919" xlink:href="#linearGradient3169" gradientUnits="userSpaceOnUse" gradientTransform="matrix(0.970504,0,0,0.407216,-56.50939,11.32708)" fx="85.50001" fy="16.99959"/><linearGradient id="linearGradient3215" x1="82.48965" x2="80.92165" y1="14.5827" y2="5.69302" xlink:href="#linearGradient3209" gradientUnits="userSpaceOnUse"/><linearGradient id="linearGradient3903" x1="76.78126" x2="81.75782" y1="15.41405" y2="2.04532" xlink:href="#linearGradient3897" gradientUnits="userSpaceOnUse"/><linearGradient id="linearGradient4796" x1="-26.85311" x2="-29.875" y1="10.70663" y2="24.00358" xlink:href="#linearGradient4790" gradientUnits="userSpaceOnUse"/><radialGradient id="radialGradient5689" cx="13.67201" cy="7.89485" r="17.50358" xlink:href="#linearGradient5683" fx="13.67201" fy="7.89485" gradientTransform="matrix(2.396145,0,0,1.213358,-19.88512,-7.579285)" gradientUnits="userSpaceOnUse"/><linearGradient id="linearGradient5743" x1="81.92186" x2="81.69065" y1="14.49374" y2="3.16986" xlink:href="#linearGradient5737" gradientUnits="userSpaceOnUse"/><radialGradient id="radialGradient3907" cx="13.17198" cy="21.69767" r="17.50358" xlink:href="#linearGradient3002" gradientUnits="userSpaceOnUse" gradientTransform="matrix(2.03989,0,0,1.032958,-64.86939,-4.409191)" fx="13.17198" fy="21.69767"/><linearGradient id="linearGradient3909" x1="80.99217" x2="84.55397" y1="15.31718" y2="5.70768" xlink:href="#linearGradient3010" gradientUnits="userSpaceOnUse"/><linearGradient id="linearGradient6599" x1="26.64159" x2="24.35841" y1="8.50111" y2="10.49889" xlink:href="#linearGradient6593" gradientUnits="userSpaceOnUse"/><radialGradient id="radialGradient2998" cx="25.54688" cy="10" r="8.45313" xlink:href="#linearGradient2992" fx="25.54688" fy="10" gradientTransform="matrix(1,0,0,0.469501,0,5.304991)" gradientUnits="userSpaceOnUse"/><linearGradient id="linearGradient3003" x1="25.5" x2="24.94244" y1="15.45327" y2="1.22275" xlink:href="#linearGradient2996" gradientUnits="userSpaceOnUse"/><linearGradient id="linearGradient3005" x1="22.4375" x2="28.25" y1="32.25" y2="31.75" xlink:href="#linearGradient2998" gradientUnits="userSpaceOnUse" gradientTransform="translate(14.75,-0.75)"/><linearGradient id="linearGradient3017" x1="44.33171" x2="46.90886" y1="22.49238" y2="22.6932" xlink:href="#linearGradient2998" gradientUnits="userSpaceOnUse"/></defs><g id="layer1"><path id="path3141" fill="url(#radialGradient3143)" stroke-dashoffset="1.2" d="M37.26572 10.40284c-10.31856-2.4997-23.5404-1.01316-29.49783 3.31643-5.9575 4.3296-2.4147 9.87737 7.9039 12.37706 10.3185 2.4997 23.5404 1.01317 29.4978-3.31642 5.9574-4.3295 2.4146-9.8773-7.9039-12.377z" opacity=".8" color="#000" stroke-linecap="round" stroke-linejoin="round" overflow="visible"/><path id="path2995" fill="none" stroke="#888a85" stroke-width="2" stroke-dashoffset="1.2" d="M26.51353 3.06933c.98054.0753 1.1122.1948 1.08017.3098L25.3533 7.2015c-.1121.19125-.4948.31232-1.0458.40434-.55837.04192-.99298.02283-1.29205-.1139l-6.1202-2.80548c-.23358-.1404-.07365-.3665 2.59566-1.11668C20.984 3.2582 22.591 3.06564 24.2572 3c.98007.01458 1.7734.03224 2.25638.06933zm4.76926.5842c.4674.05224 1.297.21765 2.5128.51488 1.3711.4377 2.5522.9718 3.5045 1.5829 1.4912 1.2598 1.3824 1.4922 1.0265 1.5604L29.958 8.3424c-.43466.05323-.84755-.04925-1.31787-.2354-.32945-.19097-.49417-.3712-.38908-.5505l2.2404-3.8224c.07844-.08553.25142-.14088.79132-.08054zm-16.6587 1.9823c.0486.0069.1024.01824.1428.03228l6.1283 2.7917c.303.1386.3247.3446.2279.6048-.2006.2474-.4449.4209-.8588.4716l-8.3606 1.0169c-.3792.0221-.7439-.1574-.8374-1.552.074-.3736.2081-.7413.4277-1.116.2196-.3746.5057-.7237.8502-1.0642C13.7373 5.792 14.306 5.5908 14.624 5.636zm24.6311 3.01714c.3247.03355.5972.33778.6783 1.5473-.074.37364-.2081.74136-.4277 1.11602-.2196.3746-.5057.7237-.8503 1.0642-1.6062 1.1863-2.1184 1.2584-2.4227 1.1526l-6.1283-2.7917c-.2871-.1313-.3286-.3227-.25217-.5633.01015-.0135.01372-.0284.02425-.0414.00507-.0137.01835-.0275.02426-.0414.19703-.2259.4423-.3822.8345-.4302l8.3606-1.0169c.0503-.0029.10933-.0005.159.0047zM21.6478 10.874c.2051.03494.4188.09967.63764.18164.37655.20564.57555.39796.46346.5892l-2.2404 3.8224c-.14635.15956-.684.20622-3.3042-.43433-1.37116-.4377-2.55222-.9717-3.5045-1.5829-1.4912-1.2598-1.38242-1.4921-1.02656-1.5603l8.3687-1.0307c.20426-.025.40076-.0198.60586.0151zm5.82574.71362c.2042.01804.36742.05612.51098.12175l6.1202 2.8055c.23358.1404.07365.3665-2.59566 1.11666-1.4931.31158-3.10008.50414-4.76626.56978-2.96974-.0441-3.38434-.2074-3.33655-.3791l2.2404-3.8224c.1164-.1986.52703-.3176 1.11425-.4107.26325-.0174.5084-.0195.7126-.0014z" color="#000" stroke-linecap="round" stroke-linejoin="round" overflow="visible"/><g id="g3901" stroke-dashoffset="1.2" transform="matrix(0.976118,0,0,0.976118,49.41488,6.4418)" color="#000" stroke-linecap="round"><path id="path2984" fill="none" stroke="#2e3436" stroke-width="2.04893" d="M-23.48647 3.06933c.98054.0753 1.1122.1948 1.08017.3098l-2.2404 3.82238c-.1121.1913-.4948.3124-1.0458.4044-.55837.0419-.99298.0229-1.29205-.1139l-6.1202-2.8055c-.23358-.1404-.07365-.3665 2.59566-1.1167 1.4931-.3116 3.1001-.5041 4.7663-.5698.9801.0146 1.7734.0323 2.2564.0694zm4.76926.5842c.4674.05224 1.297.21765 2.5128.51488 1.3711.4377 2.5522.9718 3.5045 1.5829 1.4912 1.2598 1.3824 1.4922 1.0265 1.5604l-8.3687 1.0307c-.4347.0533-.8476-.0492-1.3179-.2354-.3295-.1909-.4942-.3712-.3891-.5505l2.2404-3.8224c.0784-.0855.2514-.1408.7913-.0805zm-16.6587 1.9823c.0486.0069.1024.01824.1428.03228l6.1283 2.7917c.303.1386.3247.3446.2279.6048-.2006.2474-.4449.4209-.8588.4716l-8.3606 1.0169c-.3792.0221-.7439-.1574-.8374-1.552.074-.3736.208-.7413.4276-1.116s.5057-.7237.8502-1.0642c1.3931-1.0289 1.96185-1.2301 2.2798-1.1849zm24.6311 3.01714c.3247.03355.5972.33778.6783 1.5473-.074.37364-.2081.74136-.4277 1.11602-.2196.3746-.5057.7237-.8503 1.0642-1.6062 1.1863-2.1184 1.2584-2.4227 1.1526l-6.1283-2.7917c-.2871-.1313-.3286-.3227-.25216-.5633.01014-.0135.0137-.0284.02424-.0414.0051-.0137.01837-.0275.0243-.0414.197-.2259.4423-.3822.8345-.4302l8.3606-1.0169c.0503-.0029.1093-.0005.159.0047zM-28.3522 10.874c.2051.03494.4188.09967.63765.18164.37655.20564.57555.39796.46346.5892l-2.2404 3.8224c-.1463.15956-.684.20622-3.3042-.43433-1.3711-.4377-2.5522-.9717-3.5045-1.5829-1.4912-1.2598-1.3824-1.4921-1.0265-1.5603l8.3687-1.0307c.2043-.025.4008-.0198.6059.0151zm5.82575.71362c.2042.01804.36742.05612.51098.12175l6.1202 2.8055c.2336.1404.07365.3665-2.59566 1.11666-1.4931.31158-3.10007.50414-4.76625.56978-2.96974-.0441-3.38434-.2074-3.33655-.3791l2.2404-3.8224c.1164-.1986.52704-.3176 1.11426-.4107.26325-.0174.5084-.0195.7126-.0014z" stroke-linejoin="round" overflow="visible"/><path id="path2998" fill="url(#radialGradient3907)" stroke-width=".69589" d="M-19.97067 2.27424C-29.3015 1.13127-38.9035 3.6656-41.4037 7.9312c-2.5002 4.2656 3.04353 8.65518 12.37437 9.79815C-19.6985 18.8723-10.0965 16.338-7.5963 12.07238c2.5002-4.2656-3.04353-8.65518-12.37437-9.79814zM-23.48647 3c.98054.0753 1.1122.1948 1.08017.3098l-2.2404 3.82237c-.1121.19125-.4948.31232-1.0458.40434-.55837.042-.99298.0229-1.29205-.1139l-6.1202-2.8054c-.23358-.1404-.07365-.3665 2.59566-1.1166 1.4931-.3116 3.1001-.5041 4.7663-.5698.9801.0146 1.7734.0323 2.2564.0694zm4.76926.5842c.4674.05224 1.297.21765 2.5128.51487 1.3711.4377 2.5522.97177 3.5045 1.5829 1.4912 1.2598 1.3824 1.49216 1.0265 1.56037l-8.3687 1.0307c-.4347.05324-.8476-.04924-1.3179-.2354-.3295-.19096-.4942-.3712-.3891-.5505l2.2404-3.8224c.0784-.08552.2514-.14087.7913-.08054zm-16.6587 1.9823c.0486.0069.1024.01824.1428.03228l6.1283 2.79168c.303.13853.3247.3446.2279.60473-.2006.2474-.4449.4209-.8588.4716l-8.3606 1.0169c-.3792.022-.7439-.1575-.8374-1.552.074-.3737.2081-.7414.4277-1.116.2196-.3747.5057-.7238.8502-1.0643 1.3931-1.029 1.9618-1.2302 2.2798-1.185zm24.6311 3.01714c.3247.03354.5972.33778.6783 1.5473-.074.37364-.2081.74136-.4277 1.11602s-.5057.72375-.8503 1.06425c-1.6062 1.1864-2.1184 1.2585-2.4227 1.1527l-6.1283-2.7917c-.2871-.1312-.3286-.3226-.25217-.5633.01015-.0134.01372-.0284.02425-.0414.00507-.0136.01835-.0274.02426-.0414.19703-.2259.4423-.3822.8345-.4302l8.3606-1.0169c.0503-.0029.10933-.0004.159.0047zm-17.6074 2.22103c.2051.03494.4188.09967.6376.18164.3765.2057.5755.398.4634.5893l-2.2404 3.8224c-.1464.1596-.684.2063-3.3042-.4343-1.3712-.4377-2.5523-.9717-3.5045-1.5829-1.4912-1.2598-1.3825-1.4921-1.0266-1.5603l8.3687-1.0307c.2042-.025.4007-.0199.6058.0151zm5.8257.71362c.2042.018.3674.0561.511.1217l6.1202 2.8055c.2336.1404.0736.3665-2.5957 1.1167-1.4931.3115-3.1001.5041-4.7663.5697-2.9698-.0442-3.3844-.2075-3.3366-.3791l2.2404-3.8224c.1164-.1986.527-.3176 1.11422-.4107.26325-.0175.5084-.0195.7126-.0015z" stroke-linejoin="round" overflow="visible"/><path id="path2986" fill="none" stroke="#555753" stroke-width=".77013" d="M100.1875 10.8125a14.875 5.8125 0 1 1-29.75 0 14.875 5.8125 0 1 1 29.75 0z" transform="matrix(1.210083,0,0,1.462367,-127.7352,-5.811834)" overflow="visible"/><path id="path2988" fill="none" stroke="url(#linearGradient3909)" stroke-width=".84363" d="M100.1875 10.8125a14.875 5.8125 0 1 1-29.75 0 14.875 5.8125 0 1 1 29.75 0z" transform="matrix(1.142856,0,0,1.290324,-121.9999,-3.951621)" opacity=".5" overflow="visible"/></g><path id="path2003" fill="url(#linearGradient3107)" stroke="#000" stroke-dashoffset="1.2" d="M25.5 5.5c-4.96384 0-9 2.02016-9 4.5v6c0 2.47984 4.03616 4.5 9 4.5s9-2.02016 9-4.5v-6c0-2.47984-4.03615-4.5-9-4.5z" color="#000" stroke-linecap="round" stroke-linejoin="round" overflow="visible"/><path id="rect2953" fill="url(#linearGradient3099)" stroke="url(#linearGradient3096)" stroke-width="1.011" d="M22.8125 20.28125l18.78884 4c5.2539 1.1185 4.88994 5.0801 4.88994 5.0801v-7.875s-.35858-3.82268-4.88994-4.67385L24 13.50628" stroke-linecap="round"/><path id="path5706" fill="url(#linearGradient6599)" stroke-width="2" stroke-dashoffset="1.4" d="M34 9.5a8.5 3.5 0 1 1-17 0 8.5 3.5 0 1 1 17 0z" transform="matrix(1,0,0,1.142857,0,-0.857143)" color="#000" stroke-linecap="square" overflow="visible"/><path id="path3043" fill="none" stroke="url(#linearGradient3060)" stroke-dashoffset=".7" d="M17.5625 16c0 .53684.36494 1.1817 1.3125 1.8125s2.3896 1.16842 4.09375 1.4375c.02083-.00062.04167-.00062.0625 0l18.78125 4c1.61746.34435 2.8819.82983 3.75 1.5625" transform="translate(0,-1)" opacity=".4" color="#000" stroke-dasharray="1 1" overflow="visible"/><path id="path3099" fill="url(#radialGradient2998)" stroke-width="1.96992" stroke-dashoffset="1.2" d="M26.34375 6.03125l-1.0625 1.8125c-.1121.19125-.48024.31423-1.03125.40625-.55836.04192-.98218.04297-1.28125-.09375l-2.75-1.25c-.78327.29566-1.47955.62466-2 1.03125l2.625 1.1875c.303.13852.31563.33362.21875.59375-.2006.24742-.42983.41805-.84375.46875l-3.125.375c.14064.4685.45154.91074.90625 1.3125l2.96875-.375c.20427-.02502.4199-.0037.625.03125.2051.03494.40615.10553.625.1875.37655.20564.58085.4025.46875.59375l-.78125 1.3125c.89415.1972 1.87552.30435 2.90625.34375l.78125-1.3125c.1164-.1986.50652-.31314 1.09375-.40625.26325-.01747.51456-.01804.71875 0 .2042.01804.3877.05937.53125.125l2.15625.96875c.83805-.25484 1.58668-.56407 2.1875-.9375l-2.25-1c-.2871-.13125-.32645-.3218-.25-.5625.01016-.01345.02072-.04952.03125-.0625.0051-.01365.02534-.01728.03125-.03125.19704-.22592.45155-.38946.84375-.4375L34 9.90625c-.02333-.47172-.22054-.9259-.5625-1.34375L29.90625 9c-.4347.05325-.84218-.06385-1.3125-.25-.32945-.19097-.51134-.35196-.40625-.53125L29.25 6.4375c-.8941-.20855-1.8684-.35755-2.90625-.40625z" opacity=".3985" color="#000" stroke-linecap="round" stroke-linejoin="round" overflow="visible"/><path id="path3030" fill="none" stroke="#fff" stroke-dashoffset="1.2" d="M25.5 6.5625c-2.33848 0-4.43746.49975-5.875 1.21875-1.43754.719-2.0625 1.5525-2.0625 2.21875v6c0 .53684.36494 1.1817 1.3125 1.8125s2.3896 1.16842 4.09375 1.4375c.02083-.00062.04167-.00062.0625 0l18.78125 4c1.61746.34435 2.7569.98608 3.625 1.71875v-3.375s-.06264-.72398-.59375-1.59375c-.5311-.86977-1.45148-1.82687-3.4375-2.15625l-7.09375-1.1875c-.50208-.08795-.86998-.52155-.875-1.03125V10c0-.66624-.62496-1.49975-2.0625-2.21875-1.43754-.719-3.53652-1.21875-5.875-1.21875z" opacity=".1" color="#000" stroke-linecap="round" overflow="visible"/><g id="g3035"><path id="rect2949" fill="url(#linearGradient3047)" stroke="#2e3436" d="M1.50002 29.49997s2.0328-2 7.0063-2h23.0063c12.67115 0 14.9874-2.49685 14.9874-6V29.5c0 5.8598-2.2771 8.44752-14.9874 9l-23.0063 1c-4.65923.44193-7.0063 4-7.0063 4V29.49996z"/><path id="path2978" fill="none" stroke="url(#linearGradient2988)" stroke-dashoffset=".5" d="M2.12502 31.87497s1.4078-2.375 6.3813-2.375h23.0063c12.67115 0 14.9874-2.49685 14.9874-6" opacity=".6" stroke-dasharray="1 1"/><path id="path2980" fill="none" stroke="url(#linearGradient3000)" stroke-dashoffset=".9" d="M46.5625 25.96874c0 5.8598-.62538 10.53125-15.04988 10.53125l-23.0063 1c-4.65923.4419-7.0063 4-7.0063 4" opacity=".6" stroke-dasharray="1 1"/><path id="path3004" fill="#babdb6" d="M45.0625 28.71875c-.68942.48157-1.31414 1.05843-3.0625 1.5v3.21875c3.16645-1.26042 3.06242-2.81484 3.0625-2.84375v-1.875zM41 30.40625c-.79343.14652-1.7881.27714-3 .375v3.6875c1.18727-.1969 2.1788-.43123 3-.6875v-3.375zm-4 .4375c-1.15107.07098-2.43456.13772-4 .15625v3.96875c1.51198-.07443 2.8439-.18776 4-.34375v-3.78125zM32 31l-4 .03125v4.15625l4-.15625V31zm-5 .03125l-4 .03125v4.3125l4-.15625v-4.1875zm-5 .0625l-4 .03125v4.46875l4-.15625v-4.34375zm-5 .03125l-4 .03125v4.625l4-.15625v-4.5zm-5 .03125l-3.65625.03125c-.11836-.0031-.22654-.00146-.34375 0v4.84375c.1635-.02242.3375-.05715.46875-.0625L12 35.8125v-4.65625zM7 31.25c-1.12867.13668-2.1699.45918-3 .875v5.25c.94283-.5063 2.0542-.9189 3-1.15625V31.25zm-4 1.5c-.6.45995-.9821.94653-1 1.375v5.125c.13853-.44465.50978-.87022 1-1.25v-5.25z" opacity=".3"/><path id="path3065" fill="none" stroke="url(#linearGradient3122)" d="M105.5 25.8125c-.3813.3191-.7983.65413-1.3125.90625C101.75082 27.91352 97.90125 28.5 91.5 28.5h-23c-2.3527 0-3.96483.46137-4.96875.90625-.77093.34163-.89838.51008-1.03125.625v11c1.28963-1.10437 3.18087-2.27274 5.90625-2.53125.02083-.00065.04167-.00065.0625 0l23-1c6.2901-.2734 9.89437-1.1001 11.75-2.34375C105.07438 33.9126 105.5 32.29965 105.5 29.5v-3.6875z" transform="translate(-60,0)" opacity=".2"/><rect id="rect3114" width=".96354" height="12.03125" x="2.01823" y="29.53125" fill="#888a85" stroke-width="1.011" stroke-dashoffset=".9" ry=".4794" rx=".42824" stroke-linecap="round"/></g><path id="path3046" fill="none" stroke="url(#linearGradient3062)" stroke-dashoffset="1.4" d="M44.84375 21c-.5311-.86977-1.45148-1.82687-3.4375-2.15625l-7.09375-1.1875c-6.1796-1.03447-16.8116-2.1782-16.8116-6.2655" opacity=".4" color="#000" stroke-dasharray="1 1" overflow="visible"/><path id="path3071" fill="#fff" stroke-width="2" stroke-dashoffset="1.2" d="M18 13.875v2.03125l2 .75v-1.875c-.8402-.34057-1.5302-.64735-2-.90625zm3 1.28125v1.875l2 .75V15.75c-.55453-.101-1.26623-.32908-2-.59375zm3 .8125V18l2 .40625V16.375l-2-.40625zm3 .59375v2.03125L29 19v-2.03125l-2-.40625zm3 .625v2.03125l2 .40625v-2.03125l-2-.40625zm3 .59375v2.03125l2 .40625v-2l-2-.4375zm3 .625v2.03125l2 .40625V18.8125l-2-.40625zm3 .625v2l2 .40625v-2l-2-.40625zm3 .59375v2.0625c.81726.2173 1.4563.5099 2 .90625V20.3125c-.59663-.28353-1.25226-.5283-2-.6875zm3 1.25v2.59375l.4375.4375.5625-1.75v-.46875c-.3101-.29535-.64-.56897-1-.8125z" opacity=".15" color="#000" stroke-linecap="square" overflow="visible"/><path id="path2966" fill="none" stroke="url(#linearGradient3087)" stroke-width=".82348" stroke-dashoffset="1.2" d="M100.1875 10.8125a14.875 5.8125 0 1 1-29.75 0 14.875 5.8125 0 1 1 29.75 0z" transform="matrix(1.142857,0,0,1.290323,-72.00001,-3.95161)" color="#000" stroke-linecap="round" overflow="visible"/><path id="path3165" fill="none" stroke="#888a85" stroke-width=".75173" stroke-dashoffset="1.2" d="M100.1875 10.8125a14.875 5.8125 0 1 1-29.75 0 14.875 5.8125 0 1 1 29.75 0z" transform="matrix(1.210083,0,0,1.462367,-77.73519,-5.811834)" color="#000" stroke-linecap="round" overflow="visible"/><path id="path2992" fill="url(#radialGradient5689)" stroke-width=".69589" stroke-dashoffset="1.2" d="M30.02933 2.27424C20.6985 1.13127 11.0965 3.6656 8.5963 7.9312c-2.5002 4.2656 3.04353 8.65518 12.37437 9.79815C30.3015 18.8723 39.9035 16.338 42.4037 12.07238c2.5002-4.2656-3.04353-8.65518-12.37437-9.79814zM26.51353 3c.98054.0753 1.1122.1948 1.08017.3098l-2.2404 3.82237c-.1121.19125-.4948.31232-1.0458.40434-.55837.042-.99298.0229-1.29205-.1139l-6.1202-2.8054c-.23358-.1404-.07365-.3665 2.59566-1.1166 1.4931-.3116 3.1001-.5041 4.7663-.5698.9801.0146 1.7734.0323 2.2564.0694zm4.76926.5842c.4674.05224 1.297.21765 2.5128.51487 1.3711.4377 2.5522.97177 3.5045 1.5829 1.4912 1.2598 1.3824 1.49216 1.0265 1.56037l-8.3687 1.0307c-.4347.05324-.8476-.04924-1.3179-.2354-.3295-.19096-.4942-.3712-.3891-.5505l2.2404-3.8224c.0784-.08552.2514-.14087.7913-.08054zM14.6241 5.5665c.04863.0069.10247.01824.14283.03228l6.1283 2.79168c.303.13853.32477.3446.2279.60473-.20062.2474-.44486.4209-.85878.4716l-8.3606 1.0169c-.3792.022-.74387-.1575-.83737-1.552.07402-.3737.20808-.7414.42768-1.116.2196-.3747.5057-.7238.85025-1.0643 1.3931-1.029 1.9619-1.2302 2.2798-1.185zm24.6311 3.01714c.32477.03354.59727.33778.67836 1.5473-.07402.37364-.20808.74136-.42768 1.11602-.2196.37466-.5057.72375-.85025 1.06425-1.60622 1.1864-2.11837 1.2585-2.42263 1.1527l-6.1283-2.7917c-.2871-.1312-.3286-.3226-.25215-.5633.01015-.0134.01372-.0284.02425-.0414.00508-.0136.01836-.0274.02427-.0414.19703-.2259.4423-.3822.8345-.4302l8.3606-1.0169c.0503-.0029.10933-.0004.159.0047zm-17.6074 2.22103c.2051.03494.4188.09967.63764.18164.37655.2057.57555.398.46346.5893l-2.2404 3.8224c-.14635.1596-.684.2063-3.3042-.4343-1.37116-.4377-2.55222-.9717-3.5045-1.5829-1.4912-1.2598-1.38242-1.4921-1.02656-1.5603l8.3687-1.0307c.20426-.025.40076-.0199.60586.0151zm5.82574.71362c.2042.018.36742.0561.51098.1217l6.1202 2.8055c.23358.1404.07365.3665-2.59566 1.1167-1.4931.3115-3.10007.5041-4.76625.5697-2.9697-.0442-3.3843-.2075-3.3365-.3791l2.2404-3.8224c.1164-.1986.5271-.3176 1.1143-.4107.2633-.0175.5084-.0195.7126-.0015z" color="#000" stroke-linecap="round" stroke-linejoin="round" overflow="visible"/><path id="path3882" fill="none" stroke="url(#linearGradient5743)" stroke-width=".82348" stroke-dashoffset="1.2" d="M100.1875 10.8125a14.875 5.8125 0 1 1-29.75 0 14.875 5.8125 0 1 1 29.75 0z" transform="matrix(1.142856,0,0,1.290324,-71.99989,-3.951621)" color="#000" stroke-linecap="round" overflow="visible"/><path id="path6550" fill="url(#linearGradient3003)" stroke-width=".69589" stroke-dashoffset="1.2" d="M24.21875 2.46875c-1.6893.06655-3.2904.24487-4.8125.5625-.0104-.00034-.02084-.00034-.03125 0-1.34465.3779-2.05684.64026-2.46875.84375-.20595.10175-.3725.1497-.5.4375-.06375.1439-.0466.37056.03125.5.07786.12944.15463.1802.21875.21875.02003.01195.04092.0224.0625.03125L22.8125 7.875c.46457.21238.95438.1683 1.53125.125.0104.00034.02084.00034.03125 0 .29236-.04882.55752-.1029.78125-.1875.22373-.0846.44603-.18547.59375-.4375L28 3.5625c.02692-.03834.04798-.08046.0625-.125.03853-.1384-.0114-.39733-.125-.53125-.1136-.13392-.22417-.1768-.34375-.21875-.23915-.0839-.55457-.11724-1.0625-.15625-.51503-.03956-1.30147-.04792-2.28125-.0625-.0104-.00034-.02084-.00034-.03125 0zm.03125.46875c.98006.01458 1.767.0254 2.25.0625.98053.0753 1.12577.1975 1.09375.3125l-2.25 3.8125c-.1121.19125-.48024.31423-1.03125.40625-.55836.04192-1.01343.04297-1.3125-.09375L16.90625 4.625c-.2336-.1404-.07556-.37483 2.59375-1.125 1.4931-.31158 3.08382-.49686 4.75-.5625zm6.40625.15625c-.18182.01922-.37386.11246-.5.25-.02274.01883-.04367.03976-.0625.0625l-2.25 3.84375c-.13347.2277-.07743.59696.0625.78125.13993.18428.28124.29756.46875.40625.02003.01195.04092.0224.0625.03125.50074.1982 1.0381.3493 1.59375.28125L38.375 7.71875c.0104.00035.02084.00035.03125 0 .13264-.02542.30216-.0647.46875-.28125.1666-.21656.1558-.52483.0625-.71875-.1866-.38783-.5505-.7625-1.3125-1.40625-.02003-.01195-.04092-.0224-.0625-.03125-.99762-.64022-2.22222-1.1772-3.625-1.625-.00992-.0109-.02035-.02133-.03125-.03125-1.22747-.30008-2.05594-.4434-2.5625-.5-.28583-.03194-.50568-.05047-.6875-.03125zm.0625.46875c.12054-.017.29255.00108.5625.03125.4674.05224 1.2842.20277 2.5.5 1.37116.4377 2.57897.98263 3.53125 1.59375 1.4912 1.2598 1.35586 1.4943 1 1.5625l-8.34375 1.03125c-.4347.05325-.87343-.06385-1.34375-.25-.32945-.19097-.4801-.35196-.375-.53125l2.25-3.84375c.03922-.04277.0982-.07676.21875-.09375zM14.6875 5.09375c-.59148-.08406-1.20633.23344-2.625 1.28125-.02158.00886-.04247.0193-.0625.03125-.36792.36358-.66263.7406-.90625 1.15625-.2439.41614-.41508.85254-.5 1.28125-.00554.04148-.00554.08352 0 .125.04946.73766.16096 1.19.40625 1.53125.2453.34125.67343.45287.9375.4375.0104.00034.02084.00034.03125 0l8.34375-1c.51706-.06334.92787-.30478 1.1875-.625.03002-.04792.0512-.10084.0625-.15625.0664-.1783.1305-.37477.0625-.625s-.29358-.4851-.53125-.59375l-6.125-2.78125c-.0104-.00035-.02084-.00035-.03125 0-.12627-.0439-.19668-.05492-.25-.0625zm-.0625.46875c.04864.0069.11588.01722.15625.03125l6.125 2.78125c.303.13852.31563.36487.21875.625-.2006.24742-.46108.41805-.875.46875l-8.34375 1c-.3792.02207-.75025-.1367-.84375-1.53125.074-.37364.2179-.75034.4375-1.125s.4992-.722.84375-1.0625c1.3931-1.02894 1.9633-1.23268 2.28125-1.1875zM39.03125 8.125l-8.34375 1c-.45976.05632-.80772.2675-1.0625.53125-.00102.0007-.02638.02853-.03125.03125-.0097.01056-.0219.02055-.03125.03125-.0109.00992-.02133.02035-.03125.03125H29.5c.05074-.0626.04103-.03314-.03125.0625-.00034.0104-.00034.02084 0 .03125-.0245.02864-.04548.06012-.0625.09375-.05796.18248-.11353.42433-.03125.65625.08228.23192.30366.4272.53125.53125l6.125 2.78125c.0104.00034.02084.00034.03125 0 .26497.09212.62915.08633 1.0625-.09375.43335-.18008.9934-.52002 1.8125-1.125.02158-.00886.04247-.0193.0625-.03125.36792-.36358.66263-.7406.90625-1.15625.2439-.41614.41508-.85254.5-1.28125.00554-.04148.00554-.08352 0-.125-.04282-.63866-.13625-1.07536-.3125-1.40625-.17625-.3309-.49532-.53297-.78125-.5625-.09964-.0103-.19302-.00332-.25 0-.0104-.00034-.02084-.00034-.03125 0zm.0625.46875c.0503-.00293.10657-.00513.15625 0 .32476.03354.6064.32173.6875 1.53125-.074.37364-.2179.75034-.4375 1.125s-.49918.722-.84375 1.0625c-1.60622 1.18634-2.13323 1.26204-2.4375 1.15625l-6.125-2.78125c-.2871-.13125-.32645-.35306-.25-.59375.01016-.01345.02072-.01827.03125-.03125.0051-.01365.02534-.01728.03125-.03125.19704-.22592.45155-.38946.84375-.4375l8.34375-1zm-18.125 1.71875L12.625 11.34375c-.0104-.00034-.02084-.00034-.03125 0-.13264.02542-.30216.0647-.46875.28125-.1666.21656-.1558.52483-.0625.71875.1866.38783.5505.7625 1.3125 1.40625.02003.01195.04092.0224.0625.03125.99762.64022 2.2222 1.1772 3.625 1.625.00992.0109.02035.02133.03125.03125 1.31942.32255 2.13743.4774 2.65625.53125.2594.02693.4496.02638.625 0s.34622-.1164.46875-.25c.02274-.01883.04367-.03976.0625-.0625l2.25-3.84375c.07468-.12742.1263-.30864.09375-.46875-.03254-.1601-.1391-.28882-.21875-.375-.15933-.17236-.3277-.26384-.53125-.375-.02003-.01195-.04092-.0224-.0625-.03125-.2244-.08405-.42898-.1747-.6875-.21875-.22773-.0388-.50504-.06508-.78125-.03125zm.0625.46875c.20427-.02502.4199-.0037.625.03125.2051.03494.40615.10553.625.1875.37655.20564.58085.37125.46875.5625l-2.25 3.84375c-.14635.15958-.66106.20305-3.28125-.4375-1.37116-.4377-2.57897-.98263-3.53125-1.59375-1.4912-1.2598-1.35586-1.4943-1-1.5625l8.34375-1.03125zm5.65625.28125c-.3072.0487-.57878.10547-.8125.1875-.23372.08203-.4705.17388-.625.4375L23 15.5c-.02692.03834-.04798.08046-.0625.125-.03257.11696-.0169.30765.0625.4375.0794.12985.19427.1751.28125.21875.17396.08728.33587.11967.59375.15625.51575.07316 1.38203.13404 2.875.15625.0104.00034.02084.00034.03125 0 1.6893-.06655 3.2904-.24487 4.8125-.5625.0104.00034.02084.00034.03125 0 1.34465-.3779 2.05684-.64026 2.46875-.84375.20596-.10174.3725-.1497.5-.4375.06375-.1439.0466-.37056-.03125-.5-.07786-.12944-.15463-.1802-.21875-.21875-.02003-.01195-.04092-.0224-.0625-.03125l-6.09375-2.8125c-.26526-.12126-.49263-.1078-.6875-.125-.23887-.0211-.49886-.01874-.78125 0-.0104-.00034-.02084-.00034-.03125 0zm.0625.46875c.26325-.01747.51456-.01804.71875 0 .2042.01804.3877.02812.53125.09375l6.09375 2.8125c.2336.1404.07556.37483-2.59375 1.125-1.4931.31158-3.08382.49686-4.75.5625-2.96974-.04418-3.39154-.20335-3.34375-.375l2.25-3.8125c.1164-.1986.50652-.31314 1.09375-.40625z" opacity=".7" color="#000" stroke-linecap="round" stroke-linejoin="round" overflow="visible"/><path id="path2111" fill="url(#linearGradient3005)" fill-rule="evenodd" d="M32.75 28.125c3.91522-.13596 6.9136-.61574 9.5-1.25l2.4375 7.9375c-3.54356 2.536-8.15028 3.1819-13.1875 3.0625l1.25-9.75z" opacity=".29714"/><path id="path3009" fill="url(#linearGradient3017)" fill-rule="evenodd" d="M41.10058 23.56062c1.44527.36208 2.5013.802 3.35876 1.28163 1.20332-.869 2.5954-3.20195.26516-6.0104.24985 1.10544.45793 2.6233-3.62392 4.72877z" opacity=".6"/></g></svg>